<?xml version="1.0"?>
<!DOCTYPE svg PUBLIC "-//W3C//DTD SVG 1.0//EN" "http://www.w3.org/TR/2001/REC-SVG-20010904/DTD/svg10.dtd" >
<!--SVG content generated using Symbology Configuration Management System (SCMS)-->
<!--Systematic Software Engineering Ltd. www.systematic.co.uk Copyright 2003 - do not remove-->
<svg id="SAZP-----------" width="400px" height="400px" viewBox="0 0 400 400">
<g >
<svg viewBox="0 0 400 400" id="_0.SAZ------------" width="400px" height="400px"><path d="M115 285 C115 400 285 400 285 285 C400 285 400 115 285 115 C285 0 115 0 115 115 C0
			115 0 285 115 285 z" style="fill:rgb(128,224,255);stroke:rgb(0,0,0);stroke-width:10"></path>
<text x="330px" y="80px" style="font-size:100;font-family:Arial;fill:rgb(0,0,0)">U</text>
</svg>

</g>
<g transform="matrix(0.8 0 0 0.8 0 40.24) translate(-10 0)" >
<svg viewBox="0 0 400 400" id="_1.SPZ------------" width="400px" height="400px"><text x="200" y="272" style="fill:rgb(0,0,0);font-size:200;text-anchor:middle;font-weight:bold;font-family:Arial">?</text>
</svg>

</g>
<g transform="matrix(0.8 0 0 0.8 1 40) translate(110 3.75)" >
<svg viewBox="0 0 400 400" id="_2.SPF------------" width="400px" height="400px"><text x="182px" y="190px" transform="matrix(1 0 0 1 -45.8 81.6)" style="fill:rgb(0,0,0);font-size:200;font-family:Arial;font-weight:bold">F</text>
</svg>

</g>
</svg>