<?xml version="1.0"?>
<!DOCTYPE svg PUBLIC "-//W3C//DTD SVG 1.0//EN" "http://www.w3.org/TR/2001/REC-SVG-20010904/DTD/svg10.dtd" >
<!--SVG content generated using Symbology Configuration Management System (SCMS)-->
<!--Systematic Software Engineering Ltd. www.systematic.co.uk Copyright 2003 - do not remove-->
<svg id="SUGPUCVFR-*****" width="400px" height="450px" viewBox="0 0 400 450">
<g >
<svg viewBox="0 0 400 450" id="_0.SUG-U----------" width="400px" height="450px"><path d="M115 325 C115 440 285 440 285 325 C400 325 400 155 285 155 C285 40 115 40 115 155 C0     155 0 325 115 325 z" style="fill:rgb(255,255,128);stroke:rgb(0,0,0);stroke-width:10"></path>
</svg>

</g>
<g >
<svg viewBox="0 0 400 450" id="_1.S-G-UCVF-------" width="400px" height="450px"><path d="M200 240 L145 215 C90 190 90 290 145 265 L200 240 L255 215 C310 190 310 290 255 265     L200 240" style="fill:rgb(0,0,0);stroke:none"></path>
</svg>

</g>
<g transform="translate(100 40) scale(0.5 0.5)" >
<svg viewBox="0 0 400 450" id="_2.S-A-MFR--------" width="400px" height="450px"><text x="200" y="270" style="fill:rgb(0,0,0);text-anchor:middle;font-weight:bold;font-size:150;font-family:Arial">R</text>
</svg>

</g>
</svg>