<?xml version="1.0"?>
<!DOCTYPE svg PUBLIC "-//W3C//DTD SVG 1.0//EN" "http://www.w3.org/TR/2001/REC-SVG-20010904/DTD/svg10.dtd" >
<!--SVG content generated using Symbology Configuration Management System (SCMS)-->
<!--Systematic Software Engineering Ltd. www.systematic.co.uk Copyright 2003 - do not remove-->
<svg id="SUSPCL----*****" width="400px" height="450px" viewBox="0 0 400 450">
<g >
<svg viewBox="0 0 400 450" id="_0.SUS------------" width="400px" height="450px"><path d="M115 325 C115 440 285 440 285 325 C400 325 400 155 285 155 C285 40 115 40 115 155 C0     155 0 325 115 325 z" style="fill:rgb(255,255,128);stroke:rgb(0,0,0);stroke-width:10"></path>
</svg>

</g>
<g >
<svg viewBox="0 0 400 450" id="_1.S-S-CL---------" width="400px" height="450px"><path d="M200 330 L85 235 L160 245 L160 205 L188 205 L188 185 L118 185 L118 162 L188 162 L188
			130 L212 130 L212 162 L282 162 L282 185 L212 185 L212 205 L240 205 L240 245
			L315 235 z" style="fill:rgb(0,0,0);stroke:rgb(0,0,0);stroke-width:1" transform="translate(0 10)"></path>
</svg>

</g>
</svg>