<?xml version="1.0"?>
<!DOCTYPE svg PUBLIC "-//W3C//DTD SVG 1.0//EN" "http://www.w3.org/TR/2001/REC-SVG-20010904/DTD/svg10.dtd" >
<!--SVG content generated using Symbology Configuration Management System (SCMS)-->
<!--Systematic Software Engineering Ltd. www.systematic.co.uk Copyright 2003 - do not remove-->
<svg id="SUSPS-----*****" width="400px" height="450px" viewBox="0 0 400 450">
<g >
<svg viewBox="0 0 400 450" id="_0.SUS------------" width="400px" height="450px"><path d="M115 325 C115 440 285 440 285 325 C400 325 400 155 285 155 C285 40 115 40 115 155 C0     155 0 325 115 325 z" style="fill:rgb(255,255,128);stroke:rgb(0,0,0);stroke-width:10"></path>
</svg>

</g>
<g >
<svg viewBox="0 0 400 450" id="_1.S-S-S---------1" width="400px" height="450px"><path d="M270.75 310.608  C252.464 329.679  223.321 340.108  199.893 340.037 C160.907 339.894
			100.079 309.608  99.95 240.037 C100.093 185.049  143.807 139.9323  199.95 140.088
			C232.521 139.4452 256.236 154.731 270.807 169.517" transform="matrix(1 0 0 1 0 0)" style="fill:none;stroke:rgb(0,0,0);stroke-width:10"></path>
</svg>

</g>
<g >
<svg viewBox="0 0 400 450" id="_2.S-S-S----------" width="400px" height="450px"><rect x="135" y="195" width="130" height="90" transform="matrix(1 0 0 1 0 0)" style="fill:none;stroke:rgb(0,0,0);stroke-width:10"></rect>
<line x1="200" y1="170" x2="200" y2="310" style="fill:rgb(0,0,0);stroke:rgb(0,0,0);stroke-width:10"></line>
</svg>

</g>
</svg>