<!--Wskaznik mobilnosci sprzetu - pojazd amfibia - plik "wms_pojazdAmfibia_nzn.svg"-->
<!DOCTYPE svg PUBLIC "-//W3C//DTD SVG 1.0//EN" "http://www.w3.org/TR/2001/REC-SVG-20010904/DTD/svg10.dtd" >
<!--SVG content generated using Symbology Configuration Management System (SCMS)-->
<!--Systematic Software Engineering Ltd. www.systematic.co.uk Copyright 2003 - do not remove-->

<svg id="wms_pojazdamfibia_nzn-1" width="400px" height="400px" viewBox="0 0 400 400">
<g >
<!-- -->
<!--path d="M27 388 C27 378 71 378 71 388 C71 398 114 398 114 388 C114 378 157 378 157 388 
		    C157 398 200 398 200 388 C200 378 243 378 243 388 C243 398 286 398 286 388
		    C286 378 329 378 329 388 C329 398 372 398 372 388" style="fill:none;stroke:rgb(0,0,0);stroke-width:10" --><!--/path-->


<path d="M32 394 C50 394 53 386 53 380 C53 360 95 360 95 380 C95 400 137 400 137 380 
		    C137 360 179 360 179 380 C179 400 221 400 221 380 C221 360 263 360 263 380
		    C263 400 305 400 305 380 C305 360 347 360 347 380 C347 386 350 394 368 394" style="fill:none;stroke:rgb(0,0,0);stroke-width:10" ></path>


</g>
</svg>